<?xml version="1.0" standalone="no"?>
<!DOCTYPE svg PUBLIC "-//W3C//DTD SVG 20010904//EN"
 "http://www.w3.org/TR/2001/REC-SVG-20010904/DTD/svg10.dtd">
<svg version="1.0" xmlns="http://www.w3.org/2000/svg"
 width="300.000000pt" height="300.000000pt" viewBox="0 0 300.000000 300.000000"
 preserveAspectRatio="xMidYMid meet">
<metadata>
Created by potrace 1.10, written by Peter Selinger 2001-2011
</metadata>
<g transform="translate(0.000000,300.000000) scale(0.100000,-0.100000)"
fill="#000000" stroke="none">
<path d="M1139 1892 c-6 -15 -70 -191 -144 -392 -73 -201 -136 -373 -140 -382
-7 -17 2 -18 98 -18 l105 0 24 73 25 72 150 3 151 3 24 -73 c20 -58 29 -74 46
-76 l22 -3 -19 48 c-10 26 -55 149 -100 273 -186 518 -176 495 -205 497 -21 1
-29 -4 -37 -25z m63 -89 c12 -27 21 -61 21 -78 0 -16 -21 -88 -47 -159 -25
-71 -46 -139 -46 -152 0 -40 35 -54 137 -54 81 0 94 -2 103 -19 25 -48 19 -51
-115 -51 -72 0 -135 -5 -149 -12 -23 -10 -51 -55 -69 -110 -5 -14 -18 -18 -62
-18 -37 0 -55 4 -55 12 0 24 244 688 253 688 4 0 18 -21 29 -47z m108 -253
c23 -69 44 -131 47 -137 3 -10 -20 -13 -97 -13 -78 0 -101 3 -97 13 2 6 24 72
48 144 24 73 46 129 50 125 4 -4 25 -63 49 -132z"/>
<path d="M1232 1908 c2 -4 68 -187 148 -407 l145 -401 68 0 c50 0 67 3 67 14
0 11 6 12 38 1 20 -7 61 -15 90 -17 46 -5 52 -3 46 11 -3 9 -16 44 -28 77 -14
40 -33 71 -53 88 -18 15 -33 37 -35 49 -3 20 -8 22 -70 22 -63 0 -68 2 -77 25
-90 252 -183 509 -189 523 -6 15 -21 19 -80 20 -40 2 -71 -1 -70 -5z m116 -50
c5 -7 49 -123 98 -257 48 -135 97 -255 109 -269 15 -17 34 -25 70 -29 56 -6
103 -42 130 -100 22 -46 14 -66 -22 -56 -16 3 -64 7 -108 7 l-80 1 -121 335
c-153 421 -141 380 -111 380 14 0 29 -6 35 -12z"/>
<path d="M1763 1913 c26 -2 67 -2 90 0 23 2 2 3 -48 3 -49 0 -68 -1 -42 -3z"/>
<path d="M2001 1858 c23 -18 53 -53 66 -77 13 -24 23 -39 23 -32 0 35 -92 141
-123 141 -5 0 11 -15 34 -32z"/>
<path d="M1552 1827 c-40 -48 -55 -167 -28 -230 18 -43 61 -84 118 -113 57
-29 72 -31 60 -6 -6 9 -36 89 -67 177 -70 194 -68 191 -83 172z m42 -173 c15
-41 30 -82 33 -90 11 -30 -27 -13 -52 23 -19 29 -25 50 -25 90 0 29 4 53 9 53
4 0 20 -34 35 -76z"/>
<path d="M2020 1505 c51 -38 73 -79 80 -154 l7 -66 2 54 c1 67 -26 129 -74
165 -18 14 -37 26 -41 26 -4 0 7 -11 26 -25z"/>
<path d="M2077 1241 c-10 -23 -35 -53 -55 -68 -45 -33 -63 -49 -42 -38 59 31
127 109 118 136 -2 6 -12 -8 -21 -30z"/>
</g>
</svg>
